<?xml version="1.0" encoding="utf-8"?>
<!-- Generator: Adobe Illustrator 21.0.0, SVG Export Plug-In . SVG Version: 6.00 Build 0)  -->
<svg version="1.1" id="logo" xmlns="http://www.w3.org/2000/svg" xmlns:xlink="http://www.w3.org/1999/xlink" x="0px" y="0px"
	 viewBox="0 0 399.7 112.3" style="enable-background:new 0 0 399.7 112.3;" xml:space="preserve">
<style type="text/css">
	.st0{fill:#E30613;}
	.st1{fill:#001A2C;}
</style>
<g>
	<g id="FRT">
		<g>
			<g>
				<path class="st0" d="M220.6,25h-30.3V0.2h90.9V25h-30.3V112h-30.3L220.6,25L220.6,25z"/>
			</g>
		</g>
		<g>
			<polygon class="st0" points="74.7,24.8 74.7,0 0,0 0,24.7 			"/>
			<polygon class="st0" points="0,46.2 0,111.9 30.3,111.9 30.3,70.9 68.3,70.9 68.3,46.3 			"/>
		</g>
		<path class="st0" d="M160.7,68.5c11.1-5.8,18.5-16.3,18.5-32.4C179.2,8.2,158,0,133.3,0H90v24.8h24.9l15,0.1h7.9l11.4,10.8
			l-11.5,10.7h-7.9l-15-0.1H90v65.6h30.3V74.4h11.6l19.8,37.5h33.8L160.7,68.5z"/>
	</g>
	<g id="Slogan">
		<path class="st1" d="M270.2,76.3h-3.8v-2.6h10.7v2.6h-3.8v10.9h-3.1V76.3z"/>
		<path class="st1" d="M281.1,73.8h3.1V79h4.8v-5.2h3.1v13.5H289v-5.6h-4.8v5.6h-3.1V73.8z"/>
		<path class="st1" d="M297.1,73.8h8.6v2.6h-5.5V79h4.7v2.6h-4.7v3.1h5.7v2.6h-8.9V73.8L297.1,73.8z"/>
		<path class="st1" d="M323.1,84.1h-4.2l-0.9,3.2h-3.2l4.4-13.5h3.7l4.4,13.5H324L323.1,84.1z M322.5,81.7l-0.4-1.2
			c-0.4-1.3-0.7-2.9-1.1-4.3h-0.1c-0.3,1.4-0.7,3-1.1,4.3l-0.4,1.2H322.5z"/>
		<path class="st1" d="M337.9,87.3l-2.6-4.8h-1.7v4.8h-3.1V73.8h4.9c2.9,0,5.3,1,5.3,4.2c0,2-1,3.3-2.5,3.9l3.1,5.4L337.9,87.3
			L337.9,87.3z M333.6,80h1.6c1.6,0,2.5-0.7,2.5-2c0-1.3-0.9-1.8-2.5-1.8h-1.6V80z"/>
		<path class="st1" d="M347.6,76.3h-3.8v-2.6h10.7v2.6h-3.8v10.9h-3.1V76.3z"/>
		<path class="st1" d="M363.9,80.5c0-4.4,2.5-7,6.2-7c3.7,0,6.2,2.6,6.2,7c0,4.4-2.5,7-6.2,7C366.5,87.5,363.9,84.9,363.9,80.5z
			 M373.2,80.5c0-2.7-1.2-4.3-3.1-4.3c-1.9,0-3.1,1.6-3.1,4.3c0,2.7,1.2,4.4,3.1,4.4C372.1,84.9,373.2,83.1,373.2,80.5z"/>
		<path class="st1" d="M380.9,73.8h8.7v2.6H384v3.1h4.8V82H384v5.2h-3.1V73.8z"/>
		<path class="st1" d="M266.5,98.6h3.3l2.3,6l0.8,2.3h0.1l0.8-2.3l2.3-6h3.3v13.5h-2.9v-5c0-1.3,0.2-3.3,0.4-4.6h-0.1l-1.1,3.1
			l-2.1,5.2h-1.2l-2.1-5.2l-1.1-3.1h-0.1c0.1,1.3,0.4,3.3,0.4,4.6v5h-2.9L266.5,98.6L266.5,98.6z"/>
		<path class="st1" d="M283.7,98.6h8.6v2.6h-5.5v2.7h4.7v2.6h-4.7v3.1h5.7v2.6h-8.9V98.6L283.7,98.6z"/>
		<path class="st1" d="M299,101.2h-3.8v-2.6h10.7v2.6h-3.8v10.9H299V101.2z"/>
		<path class="st1" d="M316.5,112l-2.6-4.8h-1.7v4.8H309V98.5h4.9c2.9,0,5.3,1,5.3,4.2c0,2-1,3.3-2.5,3.9l3.1,5.4H316.5z
			 M312.2,104.8h1.6c1.6,0,2.5-0.7,2.5-2c0-1.3-0.9-1.8-2.5-1.8h-1.6V104.8z"/>
		<path class="st1" d="M322.5,105.3c0-4.4,2.5-7,6.2-7s6.2,2.6,6.2,7c0,4.4-2.5,7-6.2,7S322.5,109.7,322.5,105.3z M331.8,105.3
			c0-2.7-1.2-4.3-3.1-4.3s-3.1,1.6-3.1,4.3c0,2.7,1.2,4.4,3.1,4.4C330.6,109.7,331.8,108,331.8,105.3z"/>
		<path class="st1" d="M338.6,98.6h3.1v10.9h5.4v2.6h-8.6V98.6z"/>
		<path class="st1" d="M349.2,105.3c0-4.4,2.5-7,6.2-7s6.2,2.6,6.2,7c0,4.4-2.5,7-6.2,7S349.2,109.7,349.2,105.3z M358.5,105.3
			c0-2.7-1.2-4.3-3.1-4.3s-3.1,1.6-3.1,4.3c0,2.7,1.2,4.4,3.1,4.4C357.3,109.7,358.5,108,358.5,105.3z"/>
		<path class="st1" d="M371.5,98.3c2,0,3.3,0.9,4.3,1.8l-1.7,1.8c-0.7-0.6-1.4-1-2.5-1c-2.1,0-3.6,1.6-3.6,4.3
			c0,2.8,1.3,4.4,3.9,4.4c0.6,0,1.1-0.1,1.5-0.4v-2.3H371v-2.5h5.1v6.2c-1,0.9-2.7,1.6-4.6,1.6c-3.7,0-6.7-2.3-6.7-6.9
			C364.7,101,367.7,98.3,371.5,98.3z"/>
		<path class="st1" d="M382.2,107.3l-4.1-8.7h3.3l1.2,3.1c0.4,1,0.7,1.9,1.1,3h0.1c0.4-1.1,0.8-2,1.2-3l1.2-3.1h3.3l-4.1,8.7v4.8
			h-3.1L382.2,107.3L382.2,107.3z"/>
	</g>
	<g id="TM">
		<path class="st1" d="M393.1,99h-1.3v-0.4h3.1V99h-1.3v3.8h-0.5V99z"/>
		<path class="st1" d="M396.2,98.5h0.7l0.8,2.3l0.3,0.9l0,0l0.3-0.9l0.8-2.3h0.7v4.2h-0.5v-2.3c0-0.4,0.1-0.9,0.1-1.2l0,0l-0.4,0.9
			l-0.8,2.2h-0.3l-0.8-2.2l-0.4-0.9l0,0c0,0.4,0.1,0.9,0.1,1.2v2.3h-0.5V98.5z"/>
	</g>
</g>
</svg>
